<?xml version="1.0" encoding="utf-8"?>
<!-- Generator: Adobe Illustrator 27.7.0, SVG Export Plug-In . SVG Version: 6.00 Build 0)  -->
<svg version="1.1" id="레이어_1" xmlns="http://www.w3.org/2000/svg" xmlns:xlink="http://www.w3.org/1999/xlink" x="0px"
	 y="0px" viewBox="0 0 673 673" style="enable-background:new 0 0 673 673;" xml:space="preserve">
<style type="text/css">
	.st0{fill:#171717;stroke:#171717;stroke-width:19;stroke-linejoin:round;}
	.st1{fill-rule:evenodd;clip-rule:evenodd;fill:#FFFFFF;}
	.st2{fill-rule:evenodd;clip-rule:evenodd;fill:#171717;}
</style>
<path class="st0" d="M483,195.1L352.2,88.3c-14.6-11.9-36.5-6.7-44.1,10.6l-68.2,154.5c-1.2,2.8-3.7,4.8-6.7,5.4l-165,35.7
	c-18.4,4-28,24.4-19.2,41.1l78.2,149.6c1.4,2.7,1.4,5.9,0.1,8.6l-75,151.3c-8.4,16.9,1.6,37.1,20.1,40.6l165.8,32.1
	c3,0.6,5.5,2.5,6.8,5.3L316.5,876c8,17.1,30,21.8,44.3,9.6L489.3,776c2.3-2,5.4-2.7,8.4-2l164.2,39.4c18.3,4.4,35.8-9.8,35.1-28.7
	l-5.6-168.8c-0.1-3,1.3-5.9,3.7-7.8l133.2-103.8c14.8-11.6,14.6-34.1-0.5-45.3L692.3,358.4c-2.4-1.8-3.9-4.7-3.8-7.7l1.9-168.8
	c0.2-18.8-17.6-32.7-35.8-27.9l-163.3,43C488.5,197.7,485.3,197,483,195.1z"/>
<path class="st1" d="M383.5,483.2c-7,28.4-25.2,51.8-51.7,62C284.7,563.5,229,533.4,207.5,478s-0.8-115.2,46.4-133.5
	c29.1-11.3,61.6-4.2,87.1,16.1c7-28.4,25.2-51.7,51.7-62c47.1-18.3,102.8,11.8,124.4,67.2c21.5,55.4,0.8,115.2-46.4,133.5
	C441.5,510.6,409.1,503.4,383.5,483.2z"/>
<path class="st2" d="M349.9,461c0.7-10.7-1-22.2-5.4-33.5c-13.1-33.8-45.4-52.7-72.2-42.3c-26.8,10.4-37.8,46.2-24.7,80
	c13.1,33.8,45.4,52.7,72.2,42.3c9.8-3.8,17.6-11.1,22.7-20.4c-13.4-19.6-17.5-28,0.5-28C345.9,459,348.1,459.7,349.9,461z"/>
<path class="st2" d="M488.6,404.2c-0.6-7.5-2.3-15.1-5.3-22.7c-13.1-33.8-45.4-52.7-72.2-42.3c-26.8,10.4-37.8,46.2-24.7,80
	c13.1,33.8,45.4,52.7,72.2,42.3c12.2-4.7,21.1-14.8,26-27.5c-15-21.7-20.5-31-1.6-31C485.2,403,487,403.4,488.6,404.2z"/>
</svg>
