<svg width="55" height="55" viewBox="0 0 55 55" fill="none" xmlns="http://www.w3.org/2000/svg">
<mask id="mask0_103_15" style="mask-type:alpha" maskUnits="userSpaceOnUse" x="0" y="0" width="55" height="55">
<rect width="55" height="55" fill="#D9D9D9"/>
</mask>
<g mask="url(#mask0_103_15)">
<path d="M39.4718 15.943L28.7828 7.21713C27.5911 6.24433 25.8004 6.67349 25.1791 8.08077L19.6066 20.7039C19.5062 20.9311 19.3032 21.0966 19.0604 21.1492L5.57375 24.0657C4.07019 24.3909 3.28924 26.0585 4.00215 27.4216L10.3968 39.6488C10.512 39.869 10.5148 40.1309 10.4045 40.3535L4.27593 52.7162C3.59269 54.0945 4.40956 55.7448 5.9198 56.0373L19.4664 58.6613C19.7103 58.7085 19.9169 58.8696 20.0221 59.0946L25.8666 71.5942C26.5182 72.9877 28.3177 73.378 29.4881 72.3796L39.9858 63.4244C40.1748 63.2632 40.4295 63.2022 40.671 63.2602L54.0875 66.4841C55.5833 66.8435 57.0104 65.6799 56.9596 64.1424L56.5033 50.3516C56.4951 50.1033 56.6062 49.8661 56.8022 49.7134L67.6878 41.234C68.9014 40.2887 68.8815 38.4474 67.6477 37.5286L56.5811 29.2868C56.3819 29.1384 56.2657 28.9037 56.2685 28.6553L56.4261 14.8577C56.4437 13.3195 54.9917 12.1871 53.5041 12.5788L40.1605 16.0923C39.9203 16.1556 39.6643 16.1001 39.4718 15.943Z" fill="#F4F0ED" stroke="#F4F0ED" stroke-width="1.55275" stroke-linejoin="round"/>
<mask id="path-3-outside-1_103_15" maskUnits="userSpaceOnUse" x="11.1831" y="18.4964" width="36.8636" height="31.7345" fill="black">
<rect fill="white" x="11.1831" y="18.4964" width="36.8636" height="31.7345"/>
<path fill-rule="evenodd" clip-rule="evenodd" d="M31.3428 39.4852C30.7707 41.8027 29.2865 43.7146 27.1211 44.556C23.2686 46.0531 18.7186 43.5949 16.9586 39.0656C15.1985 34.5363 16.8948 29.6509 20.7474 28.1538C23.1294 27.2282 25.7779 27.8146 27.8689 29.4677C28.441 27.1502 29.9252 25.2383 32.0906 24.3969C35.9431 22.8998 40.493 25.358 42.2531 29.8873C44.0131 34.4166 42.3169 39.302 38.4643 40.7991C36.0823 41.7247 33.4337 41.1383 31.3428 39.4852Z"/>
</mask>
<path d="M31.3428 39.4852L32.3058 38.2671L30.4135 36.771L29.8353 39.113L31.3428 39.4852ZM27.8689 29.4677L26.9059 30.6858L28.7982 32.1818L29.3764 29.8399L27.8689 29.4677ZM29.8353 39.113C29.3636 41.0239 28.1773 42.4797 26.5587 43.1087L27.6835 46.0033C30.3957 44.9494 32.1778 42.5814 32.8503 39.8573L29.8353 39.113ZM26.5587 43.1087C23.7163 44.2132 19.9441 42.4617 18.4059 38.5032L15.5113 39.628C17.4932 44.7282 22.8208 47.8929 27.6835 46.0033L26.5587 43.1087ZM18.4059 38.5032C16.8677 34.5447 18.4674 30.7057 21.3098 29.6012L20.185 26.7065C15.3223 28.5961 13.5294 34.5278 15.5113 39.628L18.4059 38.5032ZM21.3098 29.6012C23.0868 28.9106 25.1635 29.3082 26.9059 30.6858L28.8319 28.2497C26.3924 26.321 23.1719 25.5458 20.185 26.7065L21.3098 29.6012ZM29.3764 29.8399C29.8481 27.929 31.0344 26.4732 32.653 25.8442L31.5282 22.9496C28.8159 24.0035 27.0339 26.3715 26.3614 29.0956L29.3764 29.8399ZM32.653 25.8442C35.4954 24.7397 39.2675 26.4912 40.8058 30.4497L43.7004 29.3249C41.7185 24.2247 36.3908 21.06 31.5282 22.9496L32.653 25.8442ZM40.8058 30.4497C42.344 34.4082 40.7443 38.2472 37.9019 39.3517L39.0267 42.2464C43.8894 40.3568 45.6823 34.4251 43.7004 29.3249L40.8058 30.4497ZM37.9019 39.3517C36.1249 40.0423 34.0482 39.6446 32.3058 38.2671L30.3798 40.7032C32.8193 42.6319 36.0397 43.4071 39.0267 42.2464L37.9019 39.3517Z" fill="#171717" mask="url(#path-3-outside-1_103_15)"/>
<path fill-rule="evenodd" clip-rule="evenodd" d="M28.5942 37.6707C28.6514 36.795 28.5137 35.854 28.1553 34.9317C27.0831 32.1724 24.4413 30.6244 22.2547 31.4741C20.0682 32.3238 19.1648 35.2494 20.237 38.0087C21.3092 40.7679 23.951 42.3159 26.1376 41.4662C26.9422 41.1536 27.573 40.5599 27.9956 39.7968C26.9022 38.1979 26.5632 37.5111 28.0375 37.5111C28.2646 37.5111 28.4479 37.5689 28.5942 37.6707Z" fill="#171717"/>
<path fill-rule="evenodd" clip-rule="evenodd" d="M39.9292 33.0319C39.8797 32.4214 39.7386 31.7941 39.4981 31.1751C38.4259 28.4159 35.7841 26.8678 33.5975 27.7175C31.4109 28.5672 30.5076 31.4928 31.5798 34.2521C32.652 37.0113 35.2938 38.5593 37.4804 37.7097C38.4771 37.3223 39.2072 36.5036 39.6051 35.4659C38.3813 33.6916 37.9307 32.9348 39.4783 32.9348C39.6537 32.9348 39.803 32.9693 39.9292 33.0319Z" fill="#171717"/>
</g>
</svg>
