<svg width="203" height="203" viewBox="0 0 203 203" fill="none" xmlns="http://www.w3.org/2000/svg">
<path d="M123.04 57.6408L106.827 35.1394C105.019 32.6309 101.319 32.5325 99.381 34.9415L81.9954 56.5497C81.6824 56.9387 81.2021 57.1545 80.7034 57.1301L53.0025 55.7766C49.9143 55.6257 47.5306 58.457 48.2055 61.4743L54.2598 88.5395C54.3688 89.0267 54.238 89.5367 53.908 89.9114L35.5785 110.725C33.5351 113.045 34.2625 116.674 37.0424 118.028L61.9775 130.169C62.4264 130.388 62.7436 130.808 62.8308 131.3L67.6753 158.607C68.2154 161.652 71.5061 163.346 74.2976 162.016L99.3369 150.091C99.7877 149.876 100.314 149.89 100.753 150.129L125.123 163.367C127.84 164.843 131.216 163.326 131.917 160.315L138.206 133.303C138.319 132.817 138.658 132.414 139.118 132.22L164.663 121.42C167.511 120.216 168.43 116.631 166.513 114.206L149.315 92.4476C149.005 92.0559 148.902 91.5397 149.036 91.0589L156.52 64.3537C157.354 61.3764 155.124 58.4225 152.033 58.4091L124.299 58.289C123.8 58.2868 123.331 58.0459 123.04 57.6408Z" fill="#171717" stroke="#171717" stroke-width="3.12093" stroke-linejoin="round"/>
<path fill-rule="evenodd" clip-rule="evenodd" d="M95.0103 99.1182C92.6939 103.32 88.8179 106.259 84.1763 106.767C75.918 107.669 68.3633 100.53 67.3024 90.8205C66.2416 81.1114 72.0763 72.5091 80.3346 71.6068C85.4406 71.0489 90.2776 73.5651 93.4771 77.8622C95.7934 73.6607 99.6694 70.7211 104.311 70.2139C112.569 69.3116 120.124 76.4509 121.185 86.16C122.246 95.8691 116.411 104.471 108.153 105.374C103.047 105.932 98.2097 103.415 95.0103 99.1182Z" fill="white"/>
<path fill-rule="evenodd" clip-rule="evenodd" d="M90.6177 94.1653C91.1844 92.4948 91.4066 90.5964 91.1906 88.6193C90.5443 82.7046 86.2207 78.3249 81.5336 78.837C76.8464 79.3492 73.5706 84.5592 74.2169 90.4739C74.8632 96.3886 79.1868 100.768 83.8739 100.256C85.5986 100.068 87.1323 99.2432 88.3497 97.9815C87.0587 94.3086 86.7579 92.7989 89.62 93.5658C90.061 93.684 90.3868 93.8915 90.6177 94.1653Z" fill="#171717"/>
<path fill-rule="evenodd" clip-rule="evenodd" d="M115.038 91.0553C115.259 89.8445 115.312 88.5532 115.167 87.2264C114.521 81.3117 110.197 76.932 105.51 77.4441C100.823 77.9563 97.547 83.1663 98.1932 89.081C98.8395 94.9958 103.163 99.3754 107.85 98.8633C109.987 98.6298 111.831 97.42 113.143 95.6121C111.69 91.5311 111.209 89.8276 114.213 90.6326C114.554 90.7238 114.826 90.8682 115.038 91.0553Z" fill="#171717"/>
</svg>
