<?xml version="1.0" encoding="utf-8"?>
<!-- Generator: Adobe Illustrator 27.7.0, SVG Export Plug-In . SVG Version: 6.00 Build 0)  -->
<svg version="1.1" id="레이어_1" xmlns="http://www.w3.org/2000/svg" xmlns:xlink="http://www.w3.org/1999/xlink" x="0px"
	 y="0px" viewBox="0 0 77 77" style="enable-background:new 0 0 77 77;" xml:space="preserve">
<style type="text/css">
	.st0{fill-rule:evenodd;clip-rule:evenodd;fill:#3476F5;}
</style>
<path class="st0" d="M38.3,0c5.8,0,10.7,4,11.9,9.4c4.7-2.9,11-2.3,15.1,1.8c4.1,4.1,4.7,10.4,1.8,15.1c5.4,1.3,9.4,6.1,9.4,11.9
	c0,5.8-4,10.7-9.4,11.9c2.9,4.7,2.3,11-1.8,15.1c-4.1,4.1-10.4,4.7-15.1,1.8c-1.3,5.4-6.1,9.4-11.9,9.4c-5.8,0-10.7-4-11.9-9.4
	c-4.7,2.9-11,2.3-15.1-1.8c-4.1-4.1-4.7-10.4-1.8-15.1C4,48.9,0,44.1,0,38.3c0-5.8,4-10.7,9.4-11.9c-2.9-4.7-2.3-11,1.8-15.1
	c4.1-4.1,10.4-4.7,15.1-1.8C27.6,4,32.4,0,38.3,0z"/>
</svg>
