<svg width="77" height="77" viewBox="0 0 77 77" fill="none" xmlns="http://www.w3.org/2000/svg">
<path fill-rule="evenodd" clip-rule="evenodd" d="M38.2534 0C44.0579 0 48.9197 4.03009 50.1877 9.44168C54.9109 6.51144 61.199 7.0997 65.303 11.2042C69.4075 15.3085 69.9958 21.5961 67.0657 26.3192C72.4773 27.587 76.5076 32.4491 76.5076 38.2536C76.5076 44.058 72.4778 48.92 67.0662 50.188C69.9958 54.911 69.4075 61.1987 65.3035 65.3031C61.199 69.4075 54.9109 69.9957 50.1877 67.0656C48.9202 72.4772 44.0579 76.5074 38.2534 76.5074C32.449 76.5074 27.5872 72.4774 26.3191 67.066C21.5962 69.9957 15.3086 69.4073 11.2043 65.3031C7.09985 61.1988 6.51172 54.9111 9.44165 50.1881C4.03027 48.9202 0 44.0581 0 38.2537C0 32.4492 4.03003 27.5871 9.44165 26.3193C6.51172 21.5962 7.1001 15.3086 11.2043 11.2042C15.3086 7.09995 21.5962 6.51157 26.3191 9.44135C27.5872 4.02994 32.4492 0 38.2534 0Z" fill="#171717"/>
</svg>
