<svg width="77" height="78" viewBox="0 0 77 78" fill="none" xmlns="http://www.w3.org/2000/svg">
<path fill-rule="evenodd" clip-rule="evenodd" d="M38.2534 0.70282C44.0579 0.70282 48.92 4.7329 50.1878 10.1444C54.9109 7.2143 61.1987 7.80256 65.3032 11.907C69.4075 16.0113 69.9958 22.299 67.0659 27.0221C72.4773 28.29 76.5074 33.152 76.5074 38.9565C76.5074 44.7608 72.4774 49.6228 67.066 50.8908C69.996 55.6139 69.4077 61.9015 65.3033 66.0059C61.1989 70.1103 54.911 70.6986 50.1879 67.7684C48.9201 73.18 44.058 77.2102 38.2535 77.2102C32.4491 77.2102 27.5871 73.1802 26.3191 67.7688C21.5961 70.6985 15.3086 70.1102 11.2043 66.0059C7.09999 61.9016 6.51167 55.614 9.44159 50.8909C4.03006 49.623 -4.89277e-07 44.7609 0 38.9565C4.89281e-07 33.152 4.03011 28.29 9.44168 27.0221C6.51172 22.299 7.10003 16.0114 11.2044 11.907C15.3086 7.80278 21.5961 7.2144 26.3191 10.1441C27.5871 4.73274 32.4491 0.70282 38.2534 0.70282Z" fill="#F4F0ED"/>
</svg>
