<?xml version="1.0" encoding="UTF-8"?>
<svg id="_레이어_2" data-name="레이어 2" xmlns="http://www.w3.org/2000/svg" xmlns:xlink="http://www.w3.org/1999/xlink" viewBox="0 0 19.5 18.75">
  <defs>
    <style>
      .cls-1, .cls-2 {
        fill: none;
      }

      .cls-3 {
        fill: #8732f5;
      }

      .cls-2 {
        clip-path: url(#clippath);
      }
    </style>
    <clipPath id="clippath">
      <rect class="cls-1" width="19.5" height="18.75"/>
    </clipPath>
  </defs>
  <g id="_레이어_1-2" data-name="레이어 1">
    <g class="cls-2">
      <path class="cls-3" d="m2.33,9.21h4.55c.11,0,.2.04.28.12.08.08.12.17.12.28s-.04.2-.12.28c-.08.08-.17.12-.28.12H2.33c-.11,0-.2-.04-.28-.12-.08-.08-.12-.17-.12-.28s.04-.2.12-.28c.08-.08.17-.12.28-.12Zm7.4,2.9H2.3c-.11,0-.2-.04-.28-.12s-.12-.17-.12-.28.04-.2.12-.28c.08-.08.17-.12.28-.12h7.43c.11,0,.2.04.28.12.08.08.12.17.12.28s-.04.2-.12.28c-.08.08-.17.12-.28.12Zm4.65-6.48h-4.55c-.11,0-.2-.04-.28-.12-.08-.08-.12-.17-.12-.28s.04-.2.12-.28c.08-.08.17-.12.28-.12h4.55c.11,0,.2.04.28.12s.12.17.12.28-.04.2-.12.28c-.08.08-.17.12-.28.12Zm2.65-2.09h-7.43c-.11,0-.2-.04-.28-.12-.08-.08-.12-.17-.12-.28s.04-.2.12-.28c.08-.08.17-.12.28-.12h7.43c.11,0,.2.04.28.12.08.08.12.17.12.28s-.04.2-.12.28c-.08.08-.17.12-.28.12Zm1.57,3.14c.01.21-.02.41-.09.6-.07.19-.18.36-.33.51-.15.15-.31.26-.51.33-.19.08-.39.11-.6.1-.27,0-.54.01-.81,0-.15-.02-.28.01-.4.11-.11.13-.16.27-.14.44.01,1.05.04,2.02.05,2.22-.47-.39-.9-.82-1.29-1.29-.34-.42-.77-.77-1.14-1.15-.21-.24-.48-.35-.79-.33-.14,0-.28,0-.42,0-.25,0-.5,0-.75,0-.64,0-1.27,0-1.91,0-.86,0-1.43-.49-1.53-1.29-.01-.09-.02-.18-.02-.27v-.46c0-1.31,0-2.61,0-3.92-.01-.21.02-.41.09-.6.07-.19.18-.36.33-.51.15-.15.31-.26.51-.33s.39-.11.6-.1c2.54-.01,5.09-.01,7.64,0,.21,0,.41.03.6.11.19.08.36.19.5.34.14.15.25.32.33.51.07.19.1.39.09.6,0,1.46,0,2.92,0,4.38Zm-7.2,6.2c.01.21-.01.41-.09.61-.07.2-.18.37-.33.52-.15.15-.32.26-.52.33-.2.07-.4.1-.61.09-1.03,0-2.05.01-3.07,0-.32-.02-.58.09-.79.33-.38.39-.8.74-1.14,1.15-.39.47-.82.9-1.29,1.29,0-.2.04-1.17.05-2.22.02-.17-.03-.31-.14-.44-.12-.09-.25-.13-.4-.11-.27.01-.54,0-.81,0-.21,0-.41-.03-.6-.1-.19-.08-.36-.19-.51-.33s-.25-.32-.33-.51-.1-.39-.09-.6c0-1.46,0-2.92,0-4.38-.01-.21.02-.41.09-.6.07-.19.18-.37.33-.51.14-.15.31-.26.5-.34.19-.08.39-.11.6-.11,1.66,0,3.31-.01,4.97,0,.03.37.14.72.35,1.03.21.31.47.55.8.73.35.17.72.26,1.1.25.29,0,.59,0,.88,0,.35,0,.71,0,1.06,0,0,1.31,0,2.61,0,3.92ZM17.43,0h-8.32c-1.15.3-1.85,1-1.93,2.27,0,.24.02.49.02.73,0,.45,0,.86,0,1.28,0,.64,0,1.29,0,1.93H1.9c-.46.1-.86.31-1.21.63C.35,7.17.12,7.56,0,8.01v5.42c.03.28.12.54.28.78.23.32.52.54.89.68.35.17.72.25,1.1.25h.61v1.73c.02.64.03,1.28.05,1.93.31-.29.57-.55.78-.75.65-.64.97-.96,1.36-1.38.33-.35.35-.37.51-.54.72-.75.91-.84,1-.88.2-.08.4-.12.61-.11.89.03,1.78.02,2.67.01.31.01.6-.04.89-.15s.54-.28.75-.49c.22-.22.38-.47.49-.75.11-.29.16-.58.14-.89,0-.8,0-1.6,0-2.4v-1.54c.22,0,.42.03.62.11.09.04.28.13,1,.88.16.16.18.18.51.54.4.42.71.74,1.36,1.38.2.2.47.46.78.75.02-.64.03-1.28.05-1.93v-1.73h.61c.39,0,.75-.09,1.1-.25.36-.14.66-.37.89-.68.16-.24.25-.5.28-.78V1.81c-.12-.46-.35-.85-.69-1.17-.34-.33-.74-.54-1.21-.63Z"/>
    </g>
  </g>
</svg>