<?xml version="1.0" encoding="UTF-8"?>
<svg id="_레이어_1" data-name="레이어 1" xmlns="http://www.w3.org/2000/svg" version="1.1" viewBox="0 0 71 71">
  <defs>
    <style>
      .cls-1 {
        fill: #000;
        stroke-width: 0px;
      }
    </style>
  </defs>
  <path class="cls-1" d="M63.5,57v-14.1c0-1.3-.3-2.3-.9-3-.6-.7-1.6-1.1-2.7-1.1s-2.1.4-2.8,1.1c-.7.7-1,1.7-1,3v14.1h-8.7v-24.9h8.2v4.7h.3c.6-1.6,1.5-2.8,2.8-3.7,1.3-.9,2.9-1.3,4.8-1.3s3.3.4,4.6,1.2c1.3.7,2.3,1.8,3,3.1V5C71,2.2,68.8,0,66,0H5C2.2,0,0,2.2,0,5v61c0,2.8,2.2,5,5,5h61c2.8,0,5-2.2,5-5v-9h-7.5ZM34.6,23.4c.4-.6.9-1.1,1.6-1.4.7-.4,1.4-.6,2.2-.6s1.5.2,2.2.6c.7.4,1.2.8,1.6,1.4.4.6.6,1.3.6,2s-.2,1.4-.6,2c-.4.6-.9,1.1-1.6,1.5-.7.4-1.4.5-2.2.5s-1.5-.2-2.2-.5c-.7-.4-1.2-.9-1.6-1.5-.4-.6-.6-1.3-.6-2s.2-1.4.6-2ZM29.5,46.6c0,2.1-.6,4-1.6,5.7-1.1,1.6-2.5,2.9-4.4,3.8-1.9.9-4,1.4-6.4,1.4s-4.2-.4-5.9-1.1c-1.7-.8-3.1-1.9-4.1-3.5-1-1.6-1.5-3.6-1.5-6h8.7c0,1.3.4,2.2.9,2.9.6.7,1.4,1,2.4,1s1.9-.3,2.4-1c.6-.7.8-1.7.9-3v-22.8h8.6v22.8ZM42.7,57h-8.7v-24.9h8.7v24.9Z"/>
</svg>