<svg width="54" height="53" viewBox="0 0 54 53" fill="none" xmlns="http://www.w3.org/2000/svg">
<path d="M17.5122 9.50317C17.4954 7.98669 17.7361 6.31857 18.4941 4.93663C19.659 2.81112 21.9067 1.28241 24.1088 1.03537C25.779 0.849483 27.3698 1.40226 28.7031 2.55185C29.9088 3.59137 30.9148 5.78047 31.1939 7.46327C31.745 10.7897 31.7571 14.2311 31.2324 17.5649C31.1939 17.8144 31.4779 17.9538 31.6079 17.7484C33.3358 14.9992 37.8194 10.7237 40.7386 9.97523C44.8949 8.91125 49.9849 9.63525 52.0209 14.3852C54.016 19.0374 51.4842 22.8408 49.9825 24.6019C48.7623 26.0352 46.2016 28.2072 43.203 28.9263C39.9228 29.7114 36.4717 29.2296 35.0181 28.733C34.3827 28.5154 33.5163 26.9084 35.8387 27.1334C36.9795 27.2435 38.5606 27.9406 40.1514 28.8431C43.8793 30.9588 46.4134 35.1291 46.9092 38.0007C47.3641 40.6325 46.6685 44.1375 45.2053 45.7029C43.1043 47.9482 40.2067 48.3983 37.8795 48.0779C36.1107 47.8333 32.9484 46.5883 31.1795 44.4188C29.4106 42.2492 27.5022 36.7043 27.9714 35.7137C28.7007 34.1899 29.3601 41.2635 27.6586 44.974C26.2531 48.0387 23.6058 50.6926 20.6336 51.4753C17.5628 52.2849 13.575 51.3065 11.0914 49.1101C9.10108 47.349 8.19378 44.3821 8.10955 41.5277C8.03254 38.9497 8.57884 36.2787 9.99153 34.2535C11.1299 32.6221 12.8819 31.4847 14.6941 31.3477C15.0623 31.3208 15.1682 31.903 14.824 32.0522C11.1371 33.6445 6.61504 32.6294 3.83538 29.4326C0.77415 25.9129 0.0882617 20.0304 2.28551 15.7647C4.48276 11.499 9.31768 9.58878 13.575 10.6894C17.8468 11.7926 19.9911 16.5915 20.097 18.9273C20.1499 20.094 18.8431 18.3036 18.3137 16.6991C17.8516 15.3 17.5411 12.179 17.5122 9.50561V9.50317Z" stroke="#F4F0ED" stroke-miterlimit="10"/>
</svg>
