<?xml version="1.0" encoding="utf-8"?>
<!-- Generator: Adobe Illustrator 27.7.0, SVG Export Plug-In . SVG Version: 6.00 Build 0)  -->
<svg version="1.1" id="레이어_1" xmlns="http://www.w3.org/2000/svg" xmlns:xlink="http://www.w3.org/1999/xlink" x="0px"
	 y="0px" viewBox="0 0 56 55" style="enable-background:new 0 0 56 55;" xml:space="preserve">
<style type="text/css">
	.st0{fill:none;stroke:#3476F5;stroke-width:3;stroke-miterlimit:10;}
	.st1{fill:#3476F5;}
	.st2{fill:#3476F5;stroke:#3476F5;stroke-width:3;stroke-miterlimit:10;}
</style>
<path class="st0" d="M18.6,10.7c0-1.5,0.2-3.2,1-4.6C20.8,4,23,2.4,25.2,2.2c1.7-0.2,3.3,0.4,4.6,1.5c1.2,1,2.2,3.2,2.5,4.9
	c0.6,3.3,0.6,6.8,0,10.1c0,0.2,0.2,0.4,0.4,0.2c1.7-2.7,6.2-7,9.1-7.8C46,10,51,10.8,53.1,15.5c2,4.7-0.5,8.5-2,10.2
	c-1.2,1.4-3.8,3.6-6.8,4.3c-3.3,0.8-6.7,0.3-8.2-0.2c-0.6-0.2-1.5-1.8,0.8-1.6c1.1,0.1,2.7,0.8,4.3,1.7c3.7,2.1,6.3,6.3,6.8,9.2
	c0.5,2.6-0.2,6.1-1.7,7.7c-2.1,2.2-5,2.7-7.3,2.4c-1.8-0.2-4.9-1.5-6.7-3.7s-3.7-7.7-3.2-8.7c0.7-1.5,1.4,5.5-0.3,9.3
	c-1.4,3.1-4.1,5.7-7,6.5c-3.1,0.8-7.1-0.2-9.5-2.4c-2-1.8-2.9-4.7-3-7.6c-0.2-2.5,0.4-5.1,1.8-7.1c1.1-1.6,2.9-2.8,4.7-2.9
	c0.4,0,0.5,0.6,0.1,0.7c-3.7,1.6-8.2,0.6-11-2.6c-3-3.6-3.7-9.5-1.5-13.7s7-6.2,11.3-5.1s6.4,5.9,6.5,8.2c0.1,1.2-1.3-0.6-1.8-2.2
	C19,16.5,18.6,13.4,18.6,10.7L18.6,10.7z"/>
<path class="st1" d="M138.1,14.7c-2.6-5.7-8.6-6.4-13.1-5.2c-2.2,0.6-5,2.8-7.2,5c0.1-2.1-0.1-4.3-0.5-6.3c-0.3-1.9-1.4-4.5-3-5.8
	c-1.7-1.4-3.7-2.1-5.7-1.8c-2.6,0.2-5.3,2.1-6.8,4.6c-0.8,1.4-1.2,3.2-1.2,5.3c0,0.2,0,0.4,0,0.5c-0.6-0.3-1.3-0.6-2-0.8
	c-5.1-1.3-10.5,1.2-13,5.9c-2.4,4.7-1.7,11.3,1.7,15.4c1.5,1.8,3.6,3,5.7,3.5c-1.3,2.1-1.9,4.8-1.7,7.5c0.1,3.7,1.4,6.7,3.5,8.7
	c2.1,2,5.2,3.1,8.2,3.1c0.9,0,1.8-0.1,2.7-0.3c3.3-0.9,6.3-3.7,8-7.3c0.1-0.3,0.3-0.7,0.4-1c0.2,0.3,0.4,0.5,0.6,0.8
	c2,2.4,5.4,4,7.7,4.2c1.6,0.2,5.5,0.3,8.6-2.9c2-2.1,2.6-6.2,2.1-9c-0.4-2.2-1.9-5.2-4.2-7.6c2.9-0.9,5.5-3,6.9-4.6
	C137.4,24.8,140.5,20.3,138.1,14.7z M111.7,29.4c-1.2,0-2.1-1-2.1-2.1c0-1.2,1-2.1,2.1-2.1c1.2,0,2.1,1,2.1,2.1
	C113.8,28.5,112.8,29.4,111.7,29.4z"/>
<path class="st2" d="M-58.6,10.5c0-1.5,0.2-3.2,1-4.6c1.2-2.1,3.4-3.7,5.6-3.9c1.7-0.2,3.3,0.4,4.6,1.5c1.2,1,2.2,3.2,2.5,4.9
	c0.6,3.3,0.6,6.8,0,10.1c0,0.2,0.2,0.4,0.4,0.2c1.7-2.7,6.2-7,9.1-7.8c4.2-1.1,9.2-0.3,11.3,4.4c2,4.7-0.5,8.5-2,10.2
	c-1.2,1.4-3.8,3.6-6.8,4.3c-3.3,0.8-6.7,0.3-8.2-0.2c-0.6-0.2-1.5-1.8,0.8-1.6c1.1,0.1,2.7,0.8,4.3,1.7c3.7,2.1,6.3,6.3,6.8,9.2
	c0.5,2.6-0.2,6.1-1.7,7.7c-2.1,2.2-5,2.7-7.3,2.4c-1.8-0.2-4.9-1.5-6.7-3.7s-3.7-7.7-3.2-8.7c0.7-1.5,1.4,5.5-0.3,9.3
	c-1.4,3.1-4.1,5.7-7,6.5c-3.1,0.8-7.1-0.2-9.5-2.4c-2-1.8-2.9-4.7-3-7.6c-0.2-2.5,0.4-5.1,1.8-7.1c1.1-1.6,2.9-2.8,4.7-2.9
	c0.4,0,0.5,0.6,0.1,0.7c-3.7,1.6-8.2,0.6-11-2.6c-3-3.6-3.7-9.5-1.5-13.7c2.2-4.2,7-6.2,11.3-5.1s6.4,5.9,6.5,8.2
	c0.1,1.2-1.3-0.6-1.8-2.2C-58.2,16.3-58.6,13.2-58.6,10.5L-58.6,10.5z"/>
<circle class="st2" cx="-51.4" cy="25.7" r="3.4"/>
</svg>
