<svg width="673" height="673" viewBox="0 0 673 673" fill="none" xmlns="http://www.w3.org/2000/svg">
<mask id="mask0_65_3493" style="mask-type:alpha" maskUnits="userSpaceOnUse" x="0" y="0" width="673" height="673">
<rect width="673" height="673" fill="#D9D9D9"/>
</mask>
<g mask="url(#mask0_65_3493)">
<path d="M482.994 195.085L352.199 88.3126C337.617 76.4091 315.706 81.6603 308.104 98.8804L239.915 253.341C238.688 256.122 236.203 258.147 233.232 258.79L68.2048 294.478C49.8067 298.457 40.2507 318.862 48.9741 335.542L127.222 485.159C128.63 487.852 128.665 491.057 127.315 493.781L52.3241 645.056C43.9638 661.921 53.9592 682.114 72.4391 685.694L238.201 717.802C241.185 718.38 243.712 720.351 245 723.105L316.515 876.053C324.488 893.105 346.508 897.881 360.829 885.664L489.283 776.086C491.595 774.113 494.712 773.366 497.668 774.076L661.837 813.525C680.139 817.923 697.603 803.685 696.98 784.871L691.398 616.121C691.297 613.083 692.657 610.181 695.055 608.313L828.255 504.556C843.105 492.988 842.861 470.458 827.764 459.215L692.349 358.365C689.911 356.549 688.49 353.677 688.524 350.637L690.453 181.806C690.668 162.984 672.901 149.127 654.698 153.92L491.421 196.913C488.481 197.687 485.349 197.007 482.994 195.085Z" stroke="#171717" stroke-width="19" stroke-linejoin="round"/>
<mask id="path-3-outside-1_65_3493" maskUnits="userSpaceOnUse" x="143.925" y="233.551" width="437.548" height="376.569" fill="black">
<rect fill="white" x="143.925" y="233.551" width="437.548" height="376.569"/>
<path fill-rule="evenodd" clip-rule="evenodd" d="M383.523 483.158C376.521 511.514 358.361 534.908 331.865 545.204C284.724 563.523 229.049 533.444 207.513 478.021C185.976 422.599 206.732 362.82 253.874 344.501C283.02 333.175 315.429 340.35 341.014 360.577C348.015 332.221 366.176 308.828 392.672 298.532C439.813 280.213 495.487 310.292 517.024 365.714C538.56 421.137 517.804 480.916 470.663 499.235C441.516 510.561 409.108 503.386 383.523 483.158Z"/>
</mask>
<path d="M383.523 483.158L395.306 468.254L372.152 449.948L365.076 478.604L383.523 483.158ZM341.014 360.577L329.23 375.482L352.385 393.788L359.46 365.132L341.014 360.577ZM365.076 478.604C359.304 501.985 344.788 519.798 324.983 527.494L338.747 562.914C371.933 550.018 393.739 521.043 401.969 487.713L365.076 478.604ZM324.983 527.494C290.202 541.01 244.045 519.577 225.223 471.139L189.803 484.903C214.054 547.311 279.245 586.036 338.747 562.914L324.983 527.494ZM225.223 471.139C206.4 422.702 225.975 375.726 260.755 362.211L246.992 326.791C187.49 349.913 165.552 422.496 189.803 484.903L225.223 471.139ZM260.755 362.211C282.499 353.762 307.91 358.627 329.23 375.482L352.797 345.673C322.947 322.073 283.541 312.589 246.992 326.791L260.755 362.211ZM359.46 365.132C365.233 341.75 379.749 323.937 399.554 316.241L385.79 280.822C352.603 293.718 330.797 322.692 322.568 356.023L359.46 365.132ZM399.554 316.241C434.334 302.726 480.491 324.159 499.314 372.596L534.734 358.832C510.483 296.425 445.291 257.7 385.79 280.822L399.554 316.241ZM499.314 372.596C518.136 421.034 498.562 468.009 463.781 481.525L477.545 516.944C537.046 493.823 558.985 421.24 534.734 358.832L499.314 372.596ZM463.781 481.525C442.037 489.974 416.626 485.109 395.306 468.254L371.739 498.063C401.59 521.662 440.996 531.147 477.545 516.944L463.781 481.525Z" fill="#171717" mask="url(#path-3-outside-1_65_3493)"/>
<path fill-rule="evenodd" clip-rule="evenodd" d="M349.889 460.953C350.589 450.237 348.904 438.723 344.519 427.437C331.399 393.674 299.073 374.732 272.317 385.129C245.562 395.526 234.508 431.325 247.628 465.088C260.748 498.852 293.073 517.794 319.829 507.397C329.675 503.571 337.394 496.305 342.565 486.968C329.186 467.404 325.038 459 343.077 459C345.857 459 348.099 459.707 349.889 460.953Z" fill="#171717"/>
<path fill-rule="evenodd" clip-rule="evenodd" d="M488.592 404.186C487.986 396.717 486.26 389.041 483.317 381.468C470.197 347.705 437.871 328.763 411.115 339.16C384.359 349.557 373.305 385.356 386.426 419.119C399.546 452.882 431.871 471.824 458.627 461.427C470.825 456.687 479.759 446.668 484.627 433.969C469.653 412.26 464.142 403 483.077 403C485.223 403 487.048 403.421 488.592 404.186Z" fill="#171717"/>
</g>
</svg>
